# xmcd
#
# Track frame offsets: 
#        150
#        13818
#        24373
#        35690
#        46813
#        58473
#        69257
#        83669
#        95227
#        105770
#
# Disc length: 1566 seconds
#
# Revision: 0
# Processed by: cddbd v1.5.2PL0 Copyright (c) Steve Scherf et al.
# Submitted via: ExactAudioCopy v0.99pb5
#
DISCID=79061c0a
DTITLE=B. B. King - B. B. Blues
DYEAR=1900
DGENRE=Blues
TTITLE0=3 o'clock blues
TTITLE1=Don't you want a man like me
TTITLE2=She's dynamite
TTITLE3=B. B. Blues
TTITLE4=Hard workin' woman
TTITLE5=Fine lookin' woman
TTITLE6=She don't move no more
TTITLE7=She's a mean woman
TTITLE8=That ain't the way to do it
TTITLE9=Shake it up and go
EXTD=
EXTT0=
EXTT1=
EXTT2=
EXTT3=
EXTT4=
EXTT5=
EXTT6=
EXTT7=
EXTT8=
EXTT9=
PLAYORDER=
